<!DOCTYPE svg PUBLIC "-//W3C//DTD SVG 1.1//EN" "http://www.w3.org/Graphics/SVG/1.1/DTD/svg11.dtd">
<svg xmlns="http://www.w3.org/2000/svg" viewBox="0 0 500 500">
<path d="M160.189 29.073c-72.911 9.465-111.347 94.63-70.187 155.516 47.333 70.015 155.045 54.464 179.889-25.972 21.64-70.063-36.75-139.015-109.702-129.544M349.5 97.428c-44.104 11.097-64.369 59.14-41.896 99.324 17.331 30.991 59.742 41.908 91.396 23.526 31.312-18.182 42.392-61.006 23.748-91.778-15.08-24.888-45.887-37.956-73.248-31.072M83 253.696c-36.559 6.189-62.271 28.67-74.119 64.804-2.139 6.523-2.32 8.993-2.656 36.24l-.36 29.24 3.211 6.524c3.748 7.613 8.951 12.679 16.804 16.361l5.62 2.635 134.5.5 134.5.5.306 3c3.099 30.427 27.194 62.538 57.282 76.338 26.381 12.099 56.443 12.099 82.824 0 27.142-12.449 46.905-36.049 55.131-65.838 3.447-12.48 3.458-36.688.024-49-6.062-21.732-17.115-38.784-34.567-53.328l-6-5-2.689-10.927c-5.178-21.038-16.972-36.236-34.934-45.012-14.108-6.892-19.422-7.733-48.885-7.733h-25.114l4.811 4.111c10.918 9.328 18.896 19.289 25.669 32.05 6.798 12.807 6.842 12.223-1.089 14.332-7.95 2.113-22.882 8.877-29.246 13.246l-4.478 3.074-3.094-8.156c-8.498-22.403-23.134-38.423-44.951-49.202-19.672-9.719-16.6-9.478-118.657-9.319-48.039.075-88.468.327-89.843.56m305.299 78.264c-3.819 2.328-5.822 5.963-6.588 11.953-1.238 9.678-7.463 12.92-17.56 9.144-9.175-3.432-13.788-1.654-19.701 7.589-9.737 15.222-10.096 20.315-1.961 27.886 9.402 8.75 9.392 13.196-.051 21.983-8.078 7.518-7.707 12.646 2.012 27.839 5.913 9.243 10.526 11.021 19.701 7.589 10.097-3.776 16.322-.534 17.56 9.144 1.445 11.297 5.439 13.906 21.289 13.906 15.85 0 19.844-2.609 21.289-13.906 1.242-9.71 7.459-12.921 17.641-9.113 10.321 3.86 15.149.96 23.434-14.07 5.803-10.527 4.8-17.352-3.396-23.101-7.255-5.088-7.075-14.092.379-18.979 7.768-5.092 8.733-12.359 3.017-22.728-8.285-15.03-13.113-17.93-23.434-14.07-10.182 3.808-16.399.597-17.641-9.113-1.445-11.297-5.439-13.906-21.289-13.906-9.646 0-12.016.315-14.701 1.953m7.245 48.575c-17.517 6.653-17.03 32.157.728 38.055 8.579 2.85 17.49.183 23.164-6.933 4.597-5.765 4.603-18.57.011-24.244-5.769-7.127-15.712-9.988-23.903-6.878" fill-rule="evenodd"/>
</svg>