<!DOCTYPE svg PUBLIC "-//W3C//DTD SVG 1.1//EN" "http://www.w3.org/Graphics/SVG/1.1/DTD/svg11.dtd">
<svg xmlns="http://www.w3.org/2000/svg" viewBox="0 0 500 500">
<path d="M160.189 29.073C86.768 38.604 48.791 124.068 90.677 185.5c44.749 65.631 146.918 54.925 176.157-18.458C295.585 94.88 237.01 19.1 160.189 29.073M349.5 97.428c-44.104 11.097-64.369 59.14-41.896 99.324 17.331 30.991 59.742 41.908 91.396 23.526 35.415-20.565 43.586-69.27 16.965-101.128-15.363-18.387-43.358-27.536-66.465-21.722M79 254.563C43.611 262.207 19.695 284.172 8.838 319 6.61 326.148 6.5 327.884 6.5 356v29.5l2.943 5.808c3.531 6.968 8.843 11.996 16.437 15.557l5.62 2.635 134.5.5 134.5.5.306 3c3.099 30.427 27.194 62.538 57.282 76.338 26.381 12.099 56.443 12.099 82.824 0 27.142-12.449 46.905-36.049 55.131-65.838 3.443-12.465 3.458-36.679.031-49-6.005-21.588-16.921-38.408-34.574-53.275l-6-5.053-2.689-10.927c-5.178-21.038-16.972-36.236-34.934-45.012-14.108-6.892-19.422-7.733-48.885-7.733h-25.114l4.811 4.111c10.918 9.328 18.896 19.289 25.669 32.05 6.798 12.806 6.842 12.222-1.089 14.339-8.084 2.157-20.656 7.811-28.314 12.735l-5.545 3.564-2.353-6.649c-10.4-29.391-36.383-52.023-66.714-58.111-13.183-2.646-179.382-3.06-191.343-.476m310.595 63.703c-10.197 5.833-11.54 10.298-11.571 38.484L378 378l-21.25.024c-23.779.027-27.419.556-32.619 4.743-11.043 8.891-11.043 24.575 0 33.466 5.2 4.187 8.84 4.716 32.619 4.743L378 421v21.057c0 11.863.475 22.944 1.088 25.379 4.231 16.804 26.08 21.176 37.145 7.433 4.187-5.2 4.716-8.84 4.743-32.619L421 421l21.25-.024c23.779-.027 27.419-.556 32.619-4.743 11.043-8.891 11.043-24.575 0-33.466-5.2-4.187-8.84-4.716-32.619-4.743L421 378l-.024-21.25c-.027-23.779-.556-27.419-4.743-32.619-4.51-5.602-9.668-8.098-16.733-8.098-4.377 0-7.056.604-9.905 2.233" fill-rule="evenodd"/>
</svg>