<!DOCTYPE svg PUBLIC "-//W3C//DTD SVG 1.1//EN" "http://www.w3.org/Graphics/SVG/1.1/DTD/svg11.dtd">
<svg xmlns="http://www.w3.org/2000/svg" viewBox="0 0 704 704">
<path d="M279.5 44.707c-10.562 1.433-28.041 7.465-98.274 33.914-43.299 16.306-81.085 30.686-83.969 31.955-22.531 9.917-42.766 34.78-50.516 62.07L44.51 180.5 44.198 344c-.228 119.35 0 166.055.844 172.963 3.608 29.523 22.032 57.996 46.638 72.074 8.651 4.95 155.865 61.05 173.016 65.933 16.293 4.638 27.846 5.662 40.331 3.574 20.72-3.465 39.168-11.961 52.466-24.165l8.007-7.348 58.292-.015c49.341-.014 59.476-.26 66-1.606 38.964-8.038 67.706-35.11 77.408-72.91 2.588-10.082 3.818-51.3 1.805-60.475-7.876-35.899-59.044-41.294-72.84-7.68-2.374 5.783-2.561 7.544-3.096 29.155l-.569 23-3 4.181c-7.466 10.406-7.93 10.484-60.5 10.112l-41.5-.293v-398h45c51.445 0 51.167-.043 57.126 8.787l2.844 4.213.643 23c.354 12.65 1.088 24.363 1.632 26.028 3.106 9.516 11.441 18.963 20.755 23.524 7.67 3.755 24.628 3.613 32.541-.273 7.847-3.854 14.524-10.64 18.29-18.59l3.169-6.689.33-22.594c.363-24.854-.763-35.028-5.323-48.079-8.986-25.721-29.427-47.854-53.113-57.511-19.579-7.982-16.679-7.708-85.287-8.082l-61.392-.334-9.322-8.42c-19.58-17.683-48.797-26.451-75.893-22.773M553 259.949c-24.71 4.47-38.292 33.221-25.769 54.551.969 1.65 1.763 3.31 1.765 3.689.002.378-21.484.835-47.746 1.015-47.694.327-47.757.33-53.746 2.726-27.535 11.012-32.43 50.68-7.824 63.405 8.393 4.34 12.841 4.665 63.798 4.665 26.779 0 48.516.337 48.304.75-7.193 14.035-8.042 25.092-2.831 36.873 8.689 19.642 32.517 27.209 51.043 16.209 2.16-1.283 18.267-16.59 35.793-34.016 31.336-31.157 31.94-31.689 36.289-32l4.424-.316.271-5.5c.15-3.025.967-8.348 1.816-11.828 2.815-11.528-1.867-24.389-11.426-31.382-3.113-2.278-18.486-16.854-34.161-32.391-15.675-15.537-29.763-29.236-31.308-30.442-6.403-5.001-19.312-7.704-28.692-6.008" fill-rule="evenodd"/>
</svg>